Input #0, mov,mp4,m4a,3gp,3g2,mj2, from '/home/runner/work/Auto_Browser/Auto_Browser/recordings/oncc/latest.mp4':
  Metadata:
    major_brand     : isom
    minor_version   : 512
    compatible_brands: isomiso2avc1mp41
    encoder         : Lavf60.16.100
  Duration: 00:02:25.00, start: 0.000000, bitrate: 613 kb/s
  Stream #0:0[0x1](und): Video: h264 (High) (avc1 / 0x31637661), yuv420p(progressive), 1366x900, 610 kb/s, 25 fps, 25 tbr, 12800 tbn (default)
    Metadata:
      handler_name    : VideoHandler
      vendor_id       : [0][0][0][0]
      encoder         : Lavc60.31.102 libx264
Stream mapping:
  Stream #0:0 -> #0:0 (h264 (native) -> vp8 (libvpx))
Press [q] to stop, [?] for help
[libvpx @ 0x55e63a1ac900] v1.14.0
Output #0, webm, to '/home/runner/work/Auto_Browser/Auto_Browser/recordings/oncc/latest.webm':
  Metadata:
    major_brand     : isom
    minor_version   : 512
    compatible_brands: isomiso2avc1mp41
    encoder         : Lavf60.16.100
  Stream #0:0(und): Video: vp8, yuv420p(progressive), 1366x900, q=2-31, 1800 kb/s, 25 fps, 1k tbn (default)
    Metadata:
      handler_name    : VideoHandler
      vendor_id       : [0][0][0][0]
      encoder         : Lavc60.31.102 libvpx
    Side data:
      cpb: bitrate max/min/avg: 0/0/0 buffer size: 0 vbv_delay: N/A
frame=    0 fps=0.0 q=11.0 size=       0kB time=00:00:00.00 bitrate=N/A speed=   0x    frame=   35 fps=0.0 q=13.0 size=       1kB time=00:00:01.40 bitrate=   3.6kbits/s speed=2.67x    frame=   68 fps= 66 q=17.0 size=       1kB time=00:00:02.72 bitrate=   1.9kbits/s speed=2.65x    frame=  101 fps= 65 q=12.0 size=       1kB time=00:00:04.04 bitrate=   1.2kbits/s speed=2.62x    frame=  136 fps= 66 q=21.0 size=    1024kB time=00:00:05.44 bitrate=1542.0kbits/s speed=2.65x    frame=  169 fps= 66 q=12.0 size=    1024kB time=00:00:06.76 bitrate=1240.9kbits/s speed=2.63x    frame=  204 fps= 66 q=12.0 size=    1024kB time=00:00:08.16 bitrate=1028.0kbits/s speed=2.65x    frame=  240 fps= 67 q=11.0 size=    1024kB time=00:00:09.60 bitrate= 873.8kbits/s speed=2.67x    frame=  273 fps= 66 q=19.0 size=    2048kB time=00:00:10.92 bitrate=1536.4kbits/s speed=2.66x    frame=  310 fps= 67 q=11.0 size=    2048kB time=00:00:12.40 bitrate=1353.0kbits/s speed=2.69x    frame=  353 fps= 69 q=10.0 size=    2048kB time=00:00:14.12 bitrate=1188.2kbits/s speed=2.76x    frame=  395 fps= 70 q=10.0 size=    2816kB time=00:00:15.80 bitrate=1460.0kbits/s speed=2.81x    frame=  434 fps= 71 q=14.0 size=    2816kB time=00:00:17.36 bitrate=1328.8kbits/s speed=2.83x    frame=  470 fps= 71 q=10.0 size=    2816kB time=00:00:18.80 bitrate=1227.1kbits/s speed=2.82x    frame=  506 fps= 71 q=9.0 size=    2816kB time=00:00:20.24 bitrate=1139.8kbits/s speed=2.82x    frame=  535 fps= 70 q=9.0 size=    4096kB time=00:00:21.40 bitrate=1568.0kbits/s speed=2.79x    frame=  565 fps= 69 q=8.0 size=    4096kB time=00:00:22.60 bitrate=1484.7kbits/s speed=2.76x    frame=  598 fps= 69 q=11.0 size=    4096kB time=00:00:23.92 bitrate=1402.8kbits/s speed=2.75x    frame=  633 fps= 69 q=8.0 size=    4096kB time=00:00:25.32 bitrate=1325.2kbits/s speed=2.75x    frame=  664 fps= 68 q=9.0 size=    5376kB time=00:00:26.56 bitrate=1658.1kbits/s speed=2.74x    frame=  698 fps= 68 q=8.0 size=    5376kB time=00:00:27.92 bitrate=1577.4kbits/s speed=2.74x    frame=  733 fps= 68 q=9.0 size=    5376kB time=00:00:29.32 bitrate=1502.1kbits/s speed=2.74x    frame=  766 fps= 68 q=13.0 size=    5376kB time=00:00:30.64 bitrate=1437.3kbits/s speed=2.73x    frame=  805 fps= 69 q=7.0 size=    6656kB time=00:00:32.20 bitrate=1693.4kbits/s speed=2.75x    frame=  848 fps= 69 q=7.0 size=    6656kB time=00:00:33.92 bitrate=1607.5kbits/s speed=2.77x    frame=  893 fps= 70 q=7.0 size=    6656kB time=00:00:35.72 bitrate=1526.5kbits/s speed=2.81x    frame=  938 fps= 71 q=7.0 size=    7168kB time=00:00:37.52 bitrate=1565.0kbits/s speed=2.84x    frame=  974 fps= 71 q=11.0 size=    7168kB time=00:00:38.92 bitrate=1508.7kbits/s speed=2.83x    frame= 1003 fps= 70 q=10.0 size=    7168kB time=00:00:40.12 bitrate=1463.6kbits/s speed=2.82x    frame= 1034 fps= 70 q=11.0 size=    8704kB time=00:00:41.36 bitrate=1724.0kbits/s speed= 2.8x    frame= 1065 fps= 70 q=12.0 size=    8704kB time=00:00:42.60 bitrate=1673.8kbits/s speed=2.79x    frame= 1096 fps= 70 q=12.0 size=    8704kB time=00:00:43.84 bitrate=1626.4kbits/s speed=2.78x    frame= 1128 fps= 69 q=12.0 size=    8704kB time=00:00:45.12 bitrate=1580.3kbits/s speed=2.77x    frame= 1159 fps= 69 q=13.0 size=    9984kB time=00:00:46.36 bitrate=1764.2kbits/s speed=2.76x    frame= 1192 fps= 69 q=12.0 size=    9984kB time=00:00:47.68 bitrate=1715.4kbits/s speed=2.76x    frame= 1221 fps= 69 q=27.0 size=    9984kB time=00:00:48.84 bitrate=1674.6kbits/s speed=2.75x    frame= 1249 fps= 68 q=21.0 size=    9984kB time=00:00:49.96 bitrate=1637.1kbits/s speed=2.73x    frame= 1279 fps= 68 q=23.0 size=    9984kB time=00:00:51.16 bitrate=1598.7kbits/s speed=2.72x    frame= 1308 fps= 68 q=26.0 size=   11264kB time=00:00:52.32 bitrate=1763.7kbits/s speed=2.71x    frame= 1338 fps= 67 q=27.0 size=   11264kB time=00:00:53.52 bitrate=1724.1kbits/s speed= 2.7x    frame= 1367 fps= 67 q=27.0 size=   11264kB time=00:00:54.68 bitrate=1687.5kbits/s speed=2.69x    frame= 1398 fps= 67 q=22.0 size=   11264kB time=00:00:55.92 bitrate=1650.1kbits/s speed=2.68x    frame= 1427 fps= 67 q=22.0 size=   12544kB time=00:00:57.08 bitrate=1800.3kbits/s speed=2.67x    frame= 1461 fps= 67 q=18.0 size=   12544kB time=00:00:58.40 bitrate=1759.6kbits/s speed=2.67x    frame= 1492 fps= 67 q=11.0 size=   12544kB time=00:00:59.68 bitrate=1721.9kbits/s speed=2.67x    frame= 1523 fps= 67 q=13.0 size=   12544kB time=00:01:00.92 bitrate=1686.8kbits/s speed=2.66x    frame= 1553 fps= 66 q=14.0 size=   13568kB time=00:01:02.12 bitrate=1789.3kbits/s speed=2.66x    frame= 1586 fps= 66 q=12.0 size=   13568kB time=00:01:03.44 bitrate=1752.0kbits/s speed=2.65x    frame= 1622 fps= 66 q=12.0 size=   13568kB time=00:01:04.88 bitrate=1713.1kbits/s speed=2.66x    frame= 1660 fps= 67 q=10.0 size=   13568kB time=00:01:06.40 bitrate=1673.9kbits/s speed=2.66x    frame= 1696 fps= 67 q=10.0 size=   14848kB time=00:01:07.84 bitrate=1793.0kbits/s speed=2.67x    frame= 1734 fps= 67 q=7.0 size=   14848kB time=00:01:09.36 bitrate=1753.7kbits/s speed=2.68x    frame= 1766 fps= 67 q=12.0 size=   14848kB time=00:01:10.64 bitrate=1721.9kbits/s speed=2.67x    frame= 1800 fps= 67 q=19.0 size=   15872kB time=00:01:12.00 bitrate=1805.9kbits/s speed=2.67x    frame= 1837 fps= 67 q=11.0 size=   15872kB time=00:01:13.48 bitrate=1769.5kbits/s speed=2.68x    frame= 1869 fps= 67 q=10.0 size=   15872kB time=00:01:14.76 bitrate=1739.2kbits/s speed=2.67x    frame= 1904 fps= 67 q=11.0 size=   15872kB time=00:01:16.16 bitrate=1707.2kbits/s speed=2.68x    frame= 1938 fps= 67 q=13.0 size=   17152kB time=00:01:17.52 bitrate=1812.6kbits/s speed=2.68x    frame= 1971 fps= 67 q=10.0 size=   17152kB time=00:01:18.84 bitrate=1782.2kbits/s speed=2.67x    frame= 2003 fps= 67 q=15.0 size=   17152kB time=00:01:20.12 bitrate=1753.7kbits/s speed=2.67x    frame= 2039 fps= 67 q=13.0 size=   17152kB time=00:01:21.56 bitrate=1722.8kbits/s speed=2.67x    frame= 2069 fps= 67 q=15.0 size=   18176kB time=00:01:22.76 bitrate=1799.2kbits/s speed=2.67x    frame= 2100 fps= 67 q=15.0 size=   18176kB time=00:01:24.00 bitrate=1772.6kbits/s speed=2.66x    frame= 2136 fps= 67 q=10.0 size=   18176kB time=00:01:25.44 bitrate=1742.7kbits/s speed=2.66x    frame= 2177 fps= 67 q=10.0 size=   19200kB time=00:01:27.08 bitrate=1806.2kbits/s speed=2.67x    frame= 2216 fps= 67 q=14.0 size=   19200kB time=00:01:28.64 bitrate=1774.4kbits/s speed=2.68x    frame= 2251 fps= 67 q=14.0 size=   19200kB time=00:01:30.04 bitrate=1746.9kbits/s speed=2.68x    frame= 2287 fps= 67 q=9.0 size=   19200kB time=00:01:31.48 bitrate=1719.4kbits/s speed=2.68x    frame= 2320 fps= 67 q=10.0 size=   20224kB time=00:01:32.80 bitrate=1785.3kbits/s speed=2.68x    frame= 2353 fps= 67 q=9.0 size=   20224kB time=00:01:34.12 bitrate=1760.3kbits/s speed=2.68x    frame= 2385 fps= 67 q=8.0 size=   20224kB time=00:01:35.40 bitrate=1736.6kbits/s speed=2.68x    frame= 2417 fps= 67 q=8.0 size=   20224kB time=00:01:36.68 bitrate=1713.6kbits/s speed=2.68x    frame= 2448 fps= 67 q=8.0 size=   21248kB time=00:01:37.92 bitrate=1777.6kbits/s speed=2.67x    frame= 2479 fps= 67 q=13.0 size=   21248kB time=00:01:39.16 bitrate=1755.4kbits/s speed=2.67x    frame= 2509 fps= 67 q=16.0 size=   21248kB time=00:01:40.36 bitrate=1734.4kbits/s speed=2.66x    frame= 2539 fps= 66 q=17.0 size=   21248kB time=00:01:41.56 bitrate=1713.9kbits/s speed=2.66x    frame= 2568 fps= 66 q=23.0 size=   22528kB time=00:01:42.72 bitrate=1796.6kbits/s speed=2.65x    frame= 2598 fps= 66 q=20.0 size=   22528kB time=00:01:43.92 bitrate=1775.9kbits/s speed=2.65x    frame= 2627 fps= 66 q=20.0 size=   22528kB time=00:01:45.08 bitrate=1756.3kbits/s speed=2.65x    frame= 2656 fps= 66 q=27.0 size=   22528kB time=00:01:46.24 bitrate=1737.1kbits/s speed=2.64x    frame= 2685 fps= 66 q=26.0 size=   22528kB time=00:01:47.40 bitrate=1718.3kbits/s speed=2.64x    frame= 2713 fps= 66 q=16.0 size=   23808kB time=00:01:48.52 bitrate=1797.2kbits/s speed=2.63x    frame= 2744 fps= 66 q=11.0 size=   23808kB time=00:01:49.76 bitrate=1776.9kbits/s speed=2.63x    frame= 2775 fps= 66 q=14.0 size=   23808kB time=00:01:51.00 bitrate=1757.1kbits/s speed=2.63x    frame= 2804 fps= 66 q=18.0 size=   23808kB time=00:01:52.16 bitrate=1738.9kbits/s speed=2.62x    frame= 2832 fps= 65 q=17.0 size=   24832kB time=00:01:53.28 bitrate=1795.8kbits/s speed=2.62x    frame= 2861 fps= 65 q=15.0 size=   24832kB time=00:01:54.44 bitrate=1777.6kbits/s speed=2.61x    frame= 2892 fps= 65 q=10.0 size=   24832kB time=00:01:55.68 bitrate=1758.5kbits/s speed=2.61x    frame= 2923 fps= 65 q=10.0 size=   24832kB time=00:01:56.92 bitrate=1739.9kbits/s speed=2.61x    frame= 2955 fps= 65 q=10.0 size=   25856kB time=00:01:58.20 bitrate=1792.0kbits/s speed=2.61x    frame= 2987 fps= 65 q=9.0 size=   25856kB time=00:01:59.48 bitrate=1772.8kbits/s speed=2.61x    frame= 3021 fps= 65 q=11.0 size=   25856kB time=00:02:00.84 bitrate=1752.8kbits/s speed=2.61x    frame= 3058 fps= 65 q=14.0 size=   25856kB time=00:02:02.32 bitrate=1731.6kbits/s speed=2.61x    frame= 3090 fps= 65 q=21.0 size=   26880kB time=00:02:03.60 bitrate=1781.6kbits/s speed=2.61x    frame= 3121 fps= 65 q=18.0 size=   26880kB time=00:02:04.84 bitrate=1763.9kbits/s speed=2.61x    frame= 3151 fps= 65 q=20.0 size=   26880kB time=00:02:06.04 bitrate=1747.1kbits/s speed=2.61x    frame= 3181 fps= 65 q=18.0 size=   26880kB time=00:02:07.24 bitrate=1730.6kbits/s speed= 2.6x    frame= 3211 fps= 65 q=22.0 size=   28160kB time=00:02:08.44 bitrate=1796.1kbits/s speed= 2.6x    frame= 3247 fps= 65 q=10.0 size=   28160kB time=00:02:09.88 bitrate=1776.2kbits/s speed= 2.6x    frame= 3274 fps= 65 q=10.0 size=   28160kB time=00:02:10.96 bitrate=1761.5kbits/s speed= 2.6x    frame= 3306 fps= 65 q=15.0 size=   28160kB time=00:02:12.24 bitrate=1744.5kbits/s speed= 2.6x    frame= 3342 fps= 65 q=18.0 size=   29440kB time=00:02:13.68 bitrate=1804.1kbits/s speed= 2.6x    frame= 3380 fps= 65 q=10.0 size=   29440kB time=00:02:15.20 bitrate=1783.8kbits/s speed= 2.6x    frame= 3415 fps= 65 q=10.0 size=   29440kB time=00:02:16.60 bitrate=1765.5kbits/s speed=2.61x    frame= 3445 fps= 65 q=33.0 size=   29440kB time=00:02:17.80 bitrate=1750.2kbits/s speed= 2.6x    frame= 3470 fps= 65 q=45.0 size=   30720kB time=00:02:18.80 bitrate=1813.1kbits/s speed= 2.6x    frame= 3497 fps= 65 q=31.0 size=   30720kB time=00:02:19.88 bitrate=1799.1kbits/s speed=2.59x    frame= 3523 fps= 65 q=31.0 size=   30720kB time=00:02:20.92 bitrate=1785.8kbits/s speed=2.59x    frame= 3548 fps= 65 q=36.0 size=   30720kB time=00:02:21.92 bitrate=1773.2kbits/s speed=2.58x    frame= 3575 fps= 64 q=27.0 size=   30720kB time=00:02:23.00 bitrate=1759.8kbits/s speed=2.58x    frame= 3612 fps= 64 q=11.0 size=   31744kB time=00:02:24.48 bitrate=1799.9kbits/s speed=2.58x    [out#0/webm @ 0x55e63a181440] video:32122kB audio:0kB subtitle:0kB other streams:0kB global headers:0kB muxing overhead: 0.083436%
frame= 3625 fps= 65 q=10.0 Lsize=   32148kB time=00:02:24.96 bitrate=1816.8kbits/s speed=2.58x    
